{
    "asset" : {
        "generator" : "Khronos glTF Blender I/O v1.7.33",
        "version" : "2.0"
    },
    "scene" : 0,
    "scenes" : [
        {
            "name" : "Scene",
            "nodes" : [
                0
            ]
        }
    ],
    "nodes" : [
        {
            "mesh" : 0,
            "name" : "Lever_Left"
        }
    ],
    "materials" : [
        {
            "doubleSided" : true,
            "name" : "Atlas",
            "pbrMetallicRoughness" : {
                "baseColorTexture" : {
                    "index" : 0
                },
                "metallicFactor" : 0,
                "roughnessFactor" : 0.5
            }
        }
    ],
    "meshes" : [
        {
            "name" : "Cube.472",
            "primitives" : [
                {
                    "attributes" : {
                        "POSITION" : 0,
                        "NORMAL" : 1,
                        "TEXCOORD_0" : 2
                    },
                    "indices" : 3,
                    "material" : 0
                }
            ]
        }
    ],
    "textures" : [
        {
            "sampler" : 0,
            "source" : 0
        }
    ],
    "images" : [
        {
            "bufferView" : 4,
            "mimeType" : "image/png",
            "name" : "Atlas"
        }
    ],
    "accessors" : [
        {
            "bufferView" : 0,
            "componentType" : 5126,
            "count" : 452,
            "max" : [
                0.6611301898956299,
                1.2661633491516113,
                0.6611301898956299
            ],
            "min" : [
                -1.3126686811447144,
                -0.03097832202911377,
                -0.6611301898956299
            ],
            "type" : "VEC3"
        },
        {
            "bufferView" : 1,
            "componentType" : 5126,
            "count" : 452,
            "type" : "VEC3"
        },
        {
            "bufferView" : 2,
            "componentType" : 5126,
            "count" : 452,
            "type" : "VEC2"
        },
        {
            "bufferView" : 3,
            "componentType" : 5123,
            "count" : 1464,
            "type" : "SCALAR"
        }
    ],
    "bufferViews" : [
        {
            "buffer" : 0,
            "byteLength" : 5424,
            "byteOffset" : 0
        },
        {
            "buffer" : 0,
            "byteLength" : 5424,
            "byteOffset" : 5424
        },
        {
            "buffer" : 0,
            "byteLength" : 3616,
            "byteOffset" : 10848
        },
        {
            "buffer" : 0,
            "byteLength" : 2928,
            "byteOffset" : 14464
        },
        {
            "buffer" : 0,
            "byteLength" : 3567,
            "byteOffset" : 17392
        }
    ],
    "samplers" : [
        {
            "magFilter" : 9728,
            "minFilter" : 9984
        }
    ],
    "buffers" : [
        {
            "byteLength" : 20960,
            "uri" : "data:application/octet-stream;base64,"
        }
    ]
}
